<svg width="60" height="60" viewBox="0 0 60 60" fill="none" xmlns="http://www.w3.org/2000/svg">
<path d="M59.2852 48.6372L50.6417 9.18551C50.5299 8.66959 50.3131 8.17996 50.0036 7.74475C49.6941 7.30954 49.2981 6.93732 48.8383 6.64948C48.3785 6.36164 47.864 6.16385 47.3243 6.06747C46.7847 5.97109 46.2305 5.97803 45.6937 6.08788L33.5032 8.60298C32.425 8.82964 31.4835 9.45586 30.8836 10.3454C30.2838 11.235 30.074 12.3159 30.3 13.3532L38.9435 52.8049C39.1361 53.705 39.6457 54.5139 40.3865 55.0958C41.1273 55.6777 42.0542 55.997 43.0113 56C43.3072 55.9995 43.6022 55.9694 43.8915 55.91L56.082 53.3949C57.1616 53.1677 58.1039 52.5402 58.7039 51.6491C59.3038 50.758 59.5128 49.6755 59.2852 48.6372ZM34.3757 12.5357V12.5132L46.5635 10.013L47.4307 13.9807L35.2429 16.4983L34.3757 12.5357ZM36.9799 24.3812L36.1075 20.406L48.3005 17.8909L49.1703 21.866L36.9799 24.3812ZM55.2096 49.4847L43.0217 51.9848L42.1545 48.0172L54.3423 45.4995L55.2096 49.4622V49.4847ZM26.0421 7.99796H13.5418C12.4367 7.99796 11.3768 8.4194 10.5954 9.16958C9.814 9.91976 9.375 10.9372 9.375 11.9981V51.9998C9.375 53.0607 9.814 54.0782 10.5954 54.8284C11.3768 55.5786 12.4367 56 13.5418 56H26.0421C27.1472 56 28.207 55.5786 28.9885 54.8284C29.7699 54.0782 30.2089 53.0607 30.2089 51.9998V11.9981C30.2089 10.9372 29.7699 9.91976 28.9885 9.16958C28.207 8.4194 27.1472 7.99796 26.0421 7.99796ZM13.5418 11.9981H26.0421V15.9983H13.5418V11.9981ZM26.0421 51.9998H13.5418V47.9997H26.0421V51.9998Z" fill="white"/>
</svg>
